<svg width="225" height="37" viewBox="0 0 225 37" fill="none" xmlns="http://www.w3.org/2000/svg">
<g clip-path="url(#clip0_3_3)">
<path d="M87.078 9.27832V16.702L91.4177 9.27832H98.1933V27.2387H91.8552V19.815L87.5094 27.2387H81.5234V19.815L77.1776 27.2387H69.6733L80.1805 9.27832H87.078Z" fill="white"/>
<path d="M65.1706 9.27832L54.6619 27.2387H47.1577L57.6648 9.27832H65.1706Z" fill="#0767B1"/>
<path d="M72.675 9.27832L62.1679 27.2387H54.6621L65.1708 9.27832H72.675Z" fill="#1C4075"/>
<path d="M80.1808 9.27832L69.6737 27.2387H62.168L72.6751 9.27832H80.1808Z" fill="#E12B26"/>
<path d="M109.551 2.80908H115.059C116.52 2.80908 117.523 3.1146 118.287 3.85941C119.052 4.60573 119.392 5.70621 119.392 6.92678C119.392 8.14735 119.052 9.36791 118.203 10.1294C117.405 10.8575 116.351 11.1129 115.075 11.163C114.327 11.1965 113.359 11.1965 112.101 11.1965V15.5863H109.553V2.80908H109.551ZM112.101 8.80855C113.121 8.80855 114.022 8.80855 114.821 8.77511C115.551 8.74167 116.045 8.63983 116.385 8.31759C116.725 7.99534 116.81 7.53782 116.81 6.94502C116.81 6.31726 116.708 5.8947 116.368 5.57245C116.062 5.28365 115.586 5.20005 114.787 5.20005H112.101V8.81007V8.80855Z" fill="white"/>
<path d="M120.174 11.1994C120.174 10.1323 120.293 8.86006 120.854 7.9283C121.501 6.87797 122.69 6.35205 124.423 6.35205C126.156 6.35205 127.211 6.79285 127.839 7.62278C128.518 8.5211 128.535 9.65654 128.535 10.301C128.535 10.792 128.45 11.707 128.366 12.1311H122.604C122.604 12.4534 122.654 12.7239 122.875 13.0462C123.249 13.5721 123.912 13.7408 124.898 13.7408C126.07 13.7408 127.192 13.5721 128.093 13.4353V15.5375C127.243 15.6727 125.952 15.8764 124.644 15.8764C122.621 15.8764 121.653 15.3855 120.938 14.402C120.36 13.6055 120.173 12.657 120.173 11.1994H120.174ZM122.606 10.3679H126.141C126.157 10.2661 126.174 10.1141 126.174 9.91039C126.174 9.62158 126.141 9.2659 125.92 8.94366C125.63 8.51958 125.104 8.35086 124.424 8.35086C123.676 8.35086 123.217 8.55454 122.912 9.0455C122.691 9.40118 122.606 9.92711 122.606 10.3679Z" fill="white"/>
<path d="M130.372 6.63935H132.854V7.65623C133.21 7.40239 133.55 7.16527 133.976 6.96159C134.434 6.74119 135.2 6.53751 136.015 6.41895V8.91024C135.267 9.0288 134.655 9.1808 134.061 9.41792C133.517 9.63832 133.11 9.87544 132.854 10.0457V15.5876H130.372V6.63935Z" fill="white"/>
<path d="M137.153 6.75778C137.153 6.28354 137.17 5.57218 137.341 5.02954C137.512 4.48689 137.851 4.04609 138.344 3.70713C139.176 3.13105 140.571 2.74041 141.998 2.45312V4.8593C141.368 4.99458 140.469 5.19826 140.027 5.5205C139.772 5.70746 139.704 5.8929 139.67 6.1133C139.636 6.35042 139.636 6.5541 139.636 6.75778H142.016V9.02867H139.636V15.5875H137.155V6.75778H137.153Z" fill="white"/>
<path d="M142.524 11.131C142.524 9.89367 142.778 8.70806 143.272 7.97846C143.986 6.92813 145.057 6.35205 146.943 6.35205C148.711 6.35205 149.85 6.94485 150.546 7.91158C151.141 8.7415 151.362 9.89519 151.362 11.131C151.362 12.3667 151.107 13.5037 150.58 14.2318C149.85 15.2319 148.864 15.8764 146.943 15.8764C145.022 15.8764 144.036 15.3003 143.323 14.3169C142.83 13.639 142.524 12.4701 142.524 11.131ZM145.039 11.131C145.039 11.859 145.141 12.4184 145.379 12.8592C145.685 13.4186 146.263 13.6055 146.943 13.6055C147.623 13.6055 148.098 13.4018 148.438 12.9276C148.745 12.4868 148.847 11.9274 148.847 11.0808C148.847 10.3177 148.745 9.69151 148.388 9.21726C148.082 8.8099 147.623 8.62446 146.943 8.62446C146.263 8.62446 145.702 8.79318 145.396 9.33582C145.141 9.79335 145.039 10.336 145.039 11.1325V11.131Z" fill="white"/>
<path d="M153.232 6.63935H155.714V7.65623C156.07 7.40239 156.41 7.16527 156.835 6.96159C157.294 6.74119 158.059 6.53751 158.875 6.41895V8.91024C158.127 9.0288 157.515 9.1808 156.921 9.41792C156.377 9.63832 155.97 9.87544 155.714 10.0457V15.5876H153.232V6.63935Z" fill="white"/>
<path d="M162.494 6.63944V7.14712C162.902 6.96016 164.244 6.35064 165.128 6.35064C165.841 6.35064 166.369 6.57104 166.725 6.85832C166.93 7.02704 167.032 7.14712 167.151 7.33257C167.864 6.96016 169.038 6.34912 170.074 6.34912C170.907 6.34912 171.57 6.5528 172.064 7.06048C172.624 7.63657 172.862 8.41633 172.862 10.2297V15.5847H170.381V10.3483C170.381 9.75546 170.381 9.22953 170.16 8.95897C169.972 8.73857 169.684 8.73857 169.394 8.73857C168.902 8.73857 168.001 9.16265 167.678 9.33137V15.5847H165.196V10.3483C165.196 9.75546 165.196 9.24625 165.026 8.99241C164.855 8.73857 164.584 8.73857 164.277 8.73857C163.802 8.73857 162.934 9.11097 162.492 9.31465V15.5847H160.011V6.6364H162.492L162.494 6.63944Z" fill="white"/>
<path d="M175.429 7.89339C176.024 6.90995 177.027 6.35059 178.862 6.35059C180.29 6.35059 181.632 6.79139 183.196 7.33403V15.5877H180.748V14.4355C180.543 14.6042 180.238 14.8246 179.88 15.08C179.234 15.5375 178.673 15.8765 177.722 15.8765C176.633 15.8765 175.887 15.3688 175.394 14.5541C174.902 13.7409 174.714 12.6556 174.714 11.3164C174.714 9.97732 174.884 8.79172 175.428 7.89339H175.429ZM177.452 12.9945C177.604 13.4019 177.861 13.5372 178.303 13.5372C178.795 13.5372 179.441 13.0797 179.867 12.7574C180.206 12.5036 180.461 12.2999 180.717 12.0795V8.91028C180.344 8.775 179.664 8.5546 179.051 8.5546C178.338 8.5546 177.827 8.74156 177.556 9.28268C177.301 9.79036 177.233 10.368 177.233 11.3164C177.233 11.9092 177.301 12.5705 177.454 12.9945H177.452Z" fill="white"/>
<path d="M187.887 6.63939V7.13035C188.448 6.90995 189.875 6.35059 190.709 6.35059C191.543 6.35059 192.187 6.55427 192.68 7.06195C193.224 7.62131 193.479 8.41779 193.479 10.2312V15.5861H190.997V10.3497C190.997 9.75692 190.997 9.2994 190.759 8.97716C190.572 8.74004 190.232 8.74004 189.927 8.74004C189.332 8.74004 188.346 9.12916 187.887 9.31612V15.5861H185.406V6.63787H187.887V6.63939Z" fill="white"/>
<path d="M195.366 11.131C195.366 9.75839 195.62 8.68982 196.131 7.91158C196.761 6.96309 197.66 6.35205 199.462 6.35205C200.481 6.35205 201.67 6.65757 202.521 6.87797V9.21726C201.791 9.01358 200.617 8.69134 199.785 8.69134C199.055 8.69134 198.459 8.84334 198.187 9.4027C197.933 9.92863 197.881 10.453 197.881 11.131C197.881 11.8089 197.933 12.3166 198.152 12.809C198.39 13.3517 198.934 13.5554 199.783 13.5554C200.734 13.5554 201.737 13.3182 202.519 13.1313V15.4706C201.754 15.6226 200.463 15.8779 199.477 15.8779C197.573 15.8779 196.741 15.3186 196.111 14.3701C195.636 13.6587 195.363 12.5567 195.363 11.1325L195.366 11.131Z" fill="white"/>
<path d="M203.83 11.1994C203.83 10.1323 203.949 8.86006 204.51 7.9283C205.156 6.87797 206.345 6.35205 208.078 6.35205C209.812 6.35205 210.866 6.79285 211.494 7.62278C212.174 8.5211 212.191 9.65654 212.191 10.301C212.191 10.792 212.106 11.707 212.02 12.1311H206.258C206.258 12.4534 206.31 12.7239 206.53 13.0462C206.903 13.5721 207.566 13.7408 208.553 13.7408C209.725 13.7408 210.847 13.5721 211.747 13.4353V15.5375C210.897 15.6727 209.606 15.8764 208.298 15.8764C206.275 15.8764 205.307 15.3855 204.592 14.402C204.015 13.6055 203.827 12.657 203.827 11.1994H203.83ZM206.26 10.3679H209.795C209.812 10.2661 209.828 10.1141 209.828 9.91039C209.828 9.62158 209.795 9.2659 209.574 8.94366C209.284 8.51958 208.758 8.35086 208.078 8.35086C207.33 8.35086 206.871 8.55454 206.566 9.0455C206.345 9.40118 206.26 9.92711 206.26 10.3679Z" fill="white"/>
<path d="M113.981 20.6797C115.918 20.6797 117.278 21.0019 118.264 22.1207C119.198 23.171 119.657 24.4767 119.657 27.0181C119.657 29.5596 119.063 31.1708 117.872 32.2378C116.853 33.1529 115.629 33.4584 113.844 33.4584H109.356V20.6797H113.979H113.981ZM111.908 23.0691V31.0689H113.914C115.154 31.0689 115.901 30.7984 116.464 29.9669C116.956 29.2388 117.075 28.2387 117.075 27.0181C117.075 25.6957 116.99 24.5952 116.345 23.8322C115.784 23.171 115.019 23.0691 113.999 23.0691H111.909H111.908Z" fill="white"/>
<path d="M121.562 24.51H124.043V25.5268C124.4 25.273 124.74 25.0359 125.165 24.8322C125.624 24.6118 126.389 24.4081 127.205 24.2896V26.7808C126.456 26.8994 125.845 27.0514 125.25 27.2885C124.706 27.5089 124.299 27.746 124.043 27.9163V33.4582H121.562V24.51Z" fill="white"/>
<path d="M130.824 20.6797V23.2895H128.343V20.6797H130.824ZM128.343 33.4584V24.5101H130.824V33.4584H128.343Z" fill="white"/>
<path d="M134.581 24.5103L136.689 31.0189L138.797 24.5103H141.431L138.305 33.4585H134.956L131.863 24.5103H134.582H134.581Z" fill="white"/>
<path d="M144.947 20.6797V23.2895H142.466V20.6797H144.947ZM142.466 33.4584V24.5101H144.947V33.4584H142.466Z" fill="white"/>
<path d="M149.639 24.51V25.001C150.2 24.7806 151.627 24.2212 152.461 24.2212C153.295 24.2212 153.939 24.4249 154.432 24.9326C154.976 25.4919 155.23 26.2884 155.23 28.1018V33.4567H152.749V28.2203C152.749 27.6275 152.749 27.17 152.511 26.8478C152.324 26.6106 151.984 26.6106 151.679 26.6106C151.084 26.6106 150.098 26.9998 149.639 27.1867V33.4567H147.158V24.5085H149.639V24.51Z" fill="white"/>
<path d="M157.797 25.7123C158.444 24.6954 159.447 24.2212 161.264 24.2212C162.674 24.2212 164.17 24.7289 165.564 25.2046V32.3563C165.564 33.7972 165.411 34.9327 164.663 35.7626C163.933 36.5758 162.623 36.9999 160.6 36.9999C159.36 36.9999 158.357 36.8813 157.474 36.7628V34.5937C158.102 34.6788 159.361 34.8476 160.6 34.8476C161.501 34.8476 162.164 34.6788 162.555 34.3566C162.945 34.0344 163.082 33.6103 163.082 33.0509V32.7119C162.844 32.8305 162.555 32.9491 162.198 33.0843C161.687 33.2713 161.059 33.4568 160.329 33.4568C159.174 33.4568 158.323 32.9308 157.848 32.2027C157.372 31.4747 157.099 30.4228 157.099 29.0001C157.099 27.5774 157.303 26.4754 157.796 25.7123H157.797ZM159.854 30.5763C160.041 31.0673 160.431 31.2208 161.026 31.2208C161.468 31.2208 161.893 31.0855 162.25 30.932C162.573 30.7967 162.844 30.6615 163.082 30.5429V26.8143C162.453 26.6106 161.91 26.4754 161.366 26.4754C160.636 26.4754 160.108 26.679 159.87 27.2034C159.683 27.6275 159.616 28.1869 159.616 29.0001C159.616 29.6279 159.668 30.1021 159.854 30.5763Z" fill="white"/>
<path d="M171.461 24.1881C171.461 22.7988 171.87 21.8655 172.788 21.1709C173.603 20.5431 174.725 20.3911 176.101 20.3911C177.58 20.3911 179.551 20.8152 180.69 21.069V23.5102C179.534 23.2563 177.342 22.7821 176.202 22.7821C175.318 22.7821 174.809 22.8322 174.452 23.1043C174.129 23.3582 174.044 23.6302 174.044 24.0194C174.044 24.4602 174.129 24.7475 174.4 24.9511C174.707 25.1715 175.063 25.2901 175.76 25.5105L177.969 26.2051C178.92 26.5107 179.635 26.7478 180.161 27.2053C180.841 27.7814 181.231 28.7481 181.231 29.8486C181.231 31.0692 180.822 32.0344 179.94 32.7305C179.039 33.4419 177.917 33.7474 176.031 33.7474C174.603 33.7474 172.768 33.4085 171.579 33.188V30.7135C172.938 30.984 174.826 31.358 176.236 31.358C177.222 31.358 177.766 31.2561 178.139 31.0023C178.496 30.7652 178.65 30.4262 178.65 29.9854C178.65 29.578 178.548 29.274 178.293 29.0704C178.039 28.8667 177.393 28.6463 176.679 28.4259L174.487 27.7312C173.603 27.4424 173.025 27.2053 172.533 26.7995C171.803 26.1899 171.463 25.3083 171.463 24.1896L171.461 24.1881Z" fill="white"/>
<path d="M182.747 29.0001C182.747 27.6275 183.002 26.559 183.512 25.7807C184.142 24.8322 185.041 24.2212 186.843 24.2212C187.863 24.2212 189.052 24.5267 189.902 24.7471V27.0864C189.172 26.8827 187.998 26.5605 187.166 26.5605C186.436 26.5605 185.84 26.7125 185.569 27.2718C185.314 27.7978 185.262 28.3222 185.262 29.0001C185.262 29.678 185.314 30.1857 185.534 30.6782C185.771 31.2208 186.316 31.4245 187.165 31.4245C188.116 31.4245 189.119 31.1874 189.901 31.0004V33.3397C189.136 33.4917 187.845 33.7471 186.858 33.7471C184.954 33.7471 184.122 33.1877 183.493 32.2392C183.017 31.5279 182.744 30.4259 182.744 29.0016L182.747 29.0001Z" fill="white"/>
<path d="M194.033 20.6797V24.9159C194.645 24.6788 195.885 24.2213 196.769 24.2213C197.654 24.2213 198.282 24.4584 198.776 24.9676C199.336 25.5604 199.591 26.29 199.591 28.1034V33.4584H197.109V28.222C197.109 27.6292 197.109 27.12 196.855 26.8327C196.651 26.6123 196.344 26.6123 195.971 26.6123C195.46 26.6123 194.424 27.0014 194.033 27.1549V33.4599H191.552V20.6812H194.033V20.6797Z" fill="white"/>
<path d="M201.443 29.0001C201.443 27.7628 201.698 26.5772 202.192 25.8476C202.905 24.7973 203.977 24.2212 205.862 24.2212C207.631 24.2212 208.769 24.814 209.466 25.7807C210.06 26.6106 210.281 27.7643 210.281 29.0001C210.281 30.2359 210.027 31.3728 209.499 32.1009C208.769 33.1011 207.783 33.7456 205.862 33.7456C203.942 33.7456 202.955 33.1695 202.242 32.186C201.75 31.5081 201.443 30.3392 201.443 29.0001ZM203.958 29.0001C203.958 29.7282 204.061 30.2875 204.298 30.7283C204.605 31.2877 205.183 31.4747 205.862 31.4747C206.542 31.4747 207.018 31.271 207.358 30.7967C207.664 30.3559 207.766 29.7966 207.766 28.9499C207.766 28.1869 207.664 27.5606 207.307 27.0864C207.001 26.679 206.542 26.4936 205.862 26.4936C205.183 26.4936 204.622 26.6623 204.315 27.205C204.061 27.6625 203.958 28.2051 203.958 29.0016V29.0001Z" fill="white"/>
<path d="M211.812 29.0001C211.812 27.7628 212.066 26.5772 212.56 25.8476C213.273 24.7973 214.345 24.2212 216.231 24.2212C217.999 24.2212 219.137 24.814 219.834 25.7807C220.428 26.6106 220.65 27.7643 220.65 29.0001C220.65 30.2359 220.395 31.3728 219.868 32.1009C219.137 33.1011 218.151 33.7456 216.231 33.7456C214.31 33.7456 213.324 33.1695 212.61 32.186C212.118 31.5081 211.812 30.3392 211.812 29.0001ZM214.327 29.0001C214.327 29.7282 214.429 30.2875 214.667 30.7283C214.973 31.2877 215.551 31.4747 216.231 31.4747C216.91 31.4747 217.386 31.271 217.726 30.7967C218.032 30.3559 218.134 29.7966 218.134 28.9499C218.134 28.1869 218.032 27.5606 217.676 27.0864C217.369 26.679 216.91 26.4936 216.231 26.4936C215.551 26.4936 214.99 26.6623 214.683 27.205C214.429 27.6625 214.327 28.2051 214.327 29.0016V29.0001Z" fill="white"/>
<path d="M222.519 33.4584V20.6797H225V33.4584H222.519Z" fill="white"/>
<path d="M17.8421 0C7.98895 0 0 7.96635 0 17.7917C0 27.617 7.98895 35.5834 17.8421 35.5834C27.6953 35.5834 35.6843 27.617 35.6843 17.7917C35.6843 7.96635 27.6969 0 17.8421 0ZM34.5258 17.7917C34.5258 26.9786 27.0566 34.4266 17.8437 34.4266C8.63069 34.4266 1.16001 26.9801 1.16001 17.7917C1.16001 8.60324 8.62916 1.15672 17.8421 1.15672C27.0551 1.15672 34.5243 8.60476 34.5243 17.7917H34.5258Z" fill="white"/>
<path d="M26.4898 10.2431C26.7321 10.503 27.0812 10.921 27.2779 11.1749L30.8905 8.88727C30.7106 8.65167 30.4225 8.29447 30.2076 8.04214L27.9196 9.55151L27.7641 9.68527L27.8815 9.51503L28.8921 7.50406L28.1787 6.7927L26.1621 7.80046L25.9929 7.91598L26.1285 7.75942L27.6422 5.47941C27.3754 5.25293 27.1209 5.04621 26.7931 4.79541L24.499 8.39631C24.7902 8.61975 25.1728 8.94655 25.4167 9.16999L27.5751 8.05278L27.7138 7.95094L27.6117 8.08926L26.4928 10.2446L26.4898 10.2431Z" fill="white"/>
<path d="M18.292 5.68156L19.2798 3.47603L19.3423 3.28147L19.324 3.48515L19.4276 6.43093C19.7736 6.46437 20.1319 6.51149 20.484 6.56925L20.3239 2.20531C19.83 2.15059 19.3392 2.11259 18.8484 2.09131L17.8759 4.499L17.8423 4.67684L17.8088 4.499L16.8363 2.09131C16.3454 2.11259 15.8546 2.15059 15.3607 2.20531L15.2007 6.56925C15.5543 6.51149 15.911 6.46285 16.257 6.43093L16.3607 3.48515L16.3424 3.28147L16.4049 3.47603L17.3927 5.68156H18.292Z" fill="white"/>
<path d="M10.3075 9.15949C10.8776 8.5606 11.2023 7.86748 10.6307 7.20628C10.3197 6.84756 9.79841 6.76852 9.3655 6.94636L9.32282 6.96308L9.33654 6.92508C9.40056 6.75484 9.44172 6.21067 8.9768 5.83523C8.74968 5.65283 8.46616 5.58443 8.17806 5.61331C7.64302 5.66803 7.22993 6.03283 6.10651 7.28076C5.76811 7.65772 5.27423 8.25204 4.97852 8.6366L8.06221 11.5535C9.08655 10.4241 9.50269 10.0046 10.3075 9.15797V9.15949ZM6.28486 8.4466C6.90525 7.68964 7.56528 7.0026 7.86557 6.73051C7.96008 6.64387 8.06221 6.55875 8.1872 6.52531C8.38994 6.46907 8.59877 6.61347 8.64602 6.8202C8.69328 7.02844 8.56219 7.22604 8.41738 7.38868C8.08812 7.75804 6.88544 9.01357 6.88544 9.01357L6.28638 8.4466H6.28486ZM7.49059 9.58813C7.49059 9.58813 8.66432 8.35236 9.0454 7.95564C9.19783 7.79908 9.29538 7.70332 9.40056 7.65164C9.53623 7.58476 9.68408 7.5726 9.81518 7.66076C9.94474 7.7474 10.0057 7.89788 9.97218 8.04532C9.93255 8.22164 9.78926 8.39036 9.66884 8.51956C9.50726 8.69284 8.11556 10.1764 8.11404 10.1794L7.48907 9.58813H7.49059Z" fill="white"/>
<path d="M28.424 17.7931H17.8438V7.24121C23.691 7.24121 28.424 11.9608 28.424 17.7916V17.7931Z" fill="white"/>
<path d="M17.8435 17.793V28.3433C11.9962 28.3433 7.26318 23.6237 7.26318 17.793H17.8435Z" fill="white"/>
<path d="M17.8435 7.24121V17.7916H7.26172C7.26172 11.9608 11.9947 7.24121 17.842 7.24121H17.8435Z" fill="#006FB9"/>
<path d="M28.424 17.793C28.424 23.6237 23.691 28.3433 17.8438 28.3433V17.793H28.424Z" fill="#006FB9"/>
</g>
<defs>
<clipPath id="clip0_3_3">
<rect width="225" height="37" fill="white"/>
</clipPath>
</defs>
</svg>
