<svg width="95" height="69" viewBox="0 0 95 69" fill="none" xmlns="http://www.w3.org/2000/svg">
<g clip-path="url(#clip0_386_732)">
<path d="M83.5922 8.96924V16.1459L87.7582 8.96924H94.2625V26.332H88.1781V19.1553L84.0063 26.332H78.2599V19.1553L74.0881 26.332H66.8843L76.9708 8.96924H83.5922Z" fill="white"/>
<path d="M62.5617 8.96924L52.4737 26.332H45.2699L55.3564 8.96924H62.5617Z" fill="#0767B1"/>
<path d="M69.7655 8.96924L59.679 26.332H52.4737L62.5617 8.96924H69.7655Z" fill="#1C4075"/>
<path d="M76.9708 8.96924L66.8843 26.332H59.679L69.7655 8.96924H76.9708Z" fill="#E12B26"/>
<path d="M3.91284 41.8345H8.25736C9.41044 41.8345 10.2021 42.0769 10.805 42.6691C11.4078 43.2613 11.6771 44.1371 11.6771 45.1069C11.6771 46.0767 11.4093 47.0465 10.7391 47.6519C10.1084 48.2309 9.27728 48.4337 8.272 48.4734C7.68229 48.4998 6.91699 48.4998 5.92487 48.4998V51.9868H3.91284V41.833V41.8345ZM5.92341 46.6013C6.72822 46.6013 7.43938 46.6013 8.0686 46.5749C8.64514 46.5484 9.03437 46.4676 9.30216 46.2119C9.56994 45.9562 9.63725 45.5918 9.63725 45.1216C9.63725 44.6235 9.55677 44.287 9.28899 44.0313C9.04754 43.802 8.67148 43.7344 8.04226 43.7344H5.92341V46.6028V46.6013Z" fill="white"/>
<path d="M12.2931 48.4998C12.2931 47.652 12.3868 46.641 12.8302 45.9004C13.3394 45.0658 14.2788 44.6484 15.6455 44.6484C17.0123 44.6484 17.8449 44.9982 18.3409 45.6579C18.878 46.3721 18.8911 47.2743 18.8911 47.7857C18.8911 48.1765 18.8238 48.9039 18.7565 49.2404H14.2101C14.2101 49.4961 14.2496 49.7121 14.4252 49.9678C14.7207 50.3851 15.2431 50.5203 16.0216 50.5203C16.9464 50.5203 17.8317 50.3851 18.5429 50.2778V51.9471C17.8727 52.0544 16.8528 52.216 15.8211 52.216C14.2261 52.216 13.4608 51.8251 12.8975 51.0449C12.4409 50.4115 12.2946 49.6577 12.2946 48.4998H12.2931ZM14.2115 47.84H17.0006C17.0137 47.7592 17.0269 47.6387 17.0269 47.4771C17.0269 47.2479 17.0006 46.9657 16.8264 46.71C16.5981 46.3735 16.1826 46.2384 15.647 46.2384C15.0573 46.2384 14.6944 46.4 14.453 46.7909C14.2788 47.073 14.2115 47.4918 14.2115 47.8415V47.84Z" fill="white"/>
<path d="M20.3398 44.878H22.2977V45.6862C22.5786 45.4849 22.8479 45.2953 23.183 45.1337C23.5444 44.9588 24.1488 44.7972 24.7926 44.7031V46.6824C24.2029 46.7765 23.72 46.8985 23.2503 47.0865C22.8215 47.2614 22.4996 47.4495 22.2977 47.5847V51.9886H20.3398V44.878Z" fill="white"/>
<path d="M25.6896 44.9721C25.6896 44.5945 25.7028 44.0302 25.8374 43.5982C25.972 43.1676 26.2398 42.8164 26.629 42.5475C27.2861 42.0891 28.3865 41.7805 29.5117 41.5513V43.463C29.0157 43.5703 28.3045 43.7319 27.9562 43.9876C27.7543 44.136 27.7016 44.2844 27.6753 44.4593C27.649 44.6474 27.649 44.809 27.649 44.9706H29.5264V46.7751H27.649V51.9857H25.6911V44.9706L25.6896 44.9721Z" fill="white"/>
<path d="M29.9273 48.4454C29.9273 47.4624 30.1292 46.5205 30.517 45.9415C31.0804 45.1069 31.9247 44.6484 33.4129 44.6484C34.8074 44.6484 35.7059 45.1201 36.2561 45.8872C36.7258 46.5469 36.8999 47.4624 36.8999 48.4454C36.8999 49.4285 36.698 50.3307 36.2824 50.9097C35.7059 51.7046 34.9288 52.216 33.4129 52.216C31.8969 52.216 31.1199 51.7575 30.5565 50.9773C30.1673 50.438 29.9258 49.5093 29.9258 48.4454H29.9273ZM31.913 48.4454C31.913 49.0244 31.9935 49.4682 32.1808 49.8194C32.4222 50.2631 32.8788 50.4115 33.4143 50.4115C33.9499 50.4115 34.326 50.2499 34.5938 49.8723C34.8352 49.5225 34.9157 49.0773 34.9157 48.4043C34.9157 47.7989 34.8352 47.3008 34.5542 46.9231C34.3128 46.5998 33.9514 46.4514 33.4143 46.4514C32.8773 46.4514 32.4354 46.5866 32.1939 47.0172C31.992 47.3801 31.9115 47.8121 31.9115 48.444L31.913 48.4454Z" fill="white"/>
<path d="M38.3764 44.878H40.3342V45.6862C40.6152 45.4849 40.8844 45.2953 41.2195 45.1337C41.581 44.9588 42.1853 44.7972 42.8292 44.7031V46.6824C42.2395 46.7765 41.7566 46.8985 41.2868 47.0865C40.8581 47.2614 40.5362 47.4495 40.3342 47.5847V51.9886H38.3764V44.878Z" fill="white"/>
<path d="M45.6841 44.8777V45.2818C46.006 45.1333 47.0654 44.6484 47.7619 44.6484C48.3253 44.6484 48.7409 44.8233 49.0218 45.0525C49.1828 45.1877 49.2633 45.2818 49.3569 45.4302C49.9203 45.1334 50.8451 44.6484 51.6631 44.6484C52.3201 44.6484 52.8425 44.8101 53.2317 45.2142C53.6736 45.6726 53.8624 46.2913 53.8624 47.7328V51.9882H51.9045V47.8268C51.9045 47.3551 51.9045 46.9378 51.7304 46.7233C51.5826 46.5484 51.3543 46.5484 51.1275 46.5484C50.7383 46.5484 50.0286 46.8849 49.7725 47.0201V51.9882H47.8146V47.8268C47.8146 47.3551 47.8146 46.951 47.68 46.7497C47.5454 46.5484 47.3317 46.5484 47.0903 46.5484C46.7142 46.5484 46.0309 46.8452 45.6826 47.0069V51.9897H43.7247V44.8791H45.6826L45.6841 44.8777Z" fill="white"/>
<path d="M55.8891 45.8739C56.3588 45.0922 57.149 44.6484 58.5976 44.6484C59.7244 44.6484 60.7838 44.9982 62.0173 45.4302V51.9882H60.0858V51.0728C59.9248 51.208 59.6834 51.3828 59.4024 51.5841C58.8932 51.9471 58.4498 52.2175 57.6992 52.2175C56.8417 52.2175 56.2505 51.8134 55.8627 51.1668C55.4735 50.5203 55.3257 49.6592 55.3257 48.5953C55.3257 47.5315 55.4603 46.5896 55.8891 45.8754V45.8739ZM57.4855 49.9266C57.6055 50.2499 57.8074 50.3572 58.1557 50.3572C58.5449 50.3572 59.0542 49.9942 59.3893 49.7371C59.657 49.5358 59.859 49.3741 60.0595 49.1978V46.6792C59.7639 46.5719 59.2283 46.3971 58.7454 46.3971C58.182 46.3971 57.7796 46.5455 57.566 46.976C57.3655 47.3801 57.3114 47.8371 57.3114 48.5924C57.3114 49.0641 57.3655 49.5887 57.4855 49.9252V49.9266Z" fill="white"/>
<path d="M65.7195 44.8777V45.2685C66.1614 45.0937 67.2881 44.6484 67.9452 44.6484C68.6022 44.6484 69.1114 44.8101 69.5006 45.2142C69.9294 45.6579 70.1313 46.2913 70.1313 47.7328V51.9882H68.1734V47.8268C68.1734 47.3551 68.1734 46.9922 67.9861 46.7365C67.8383 46.5484 67.5706 46.5484 67.3291 46.5484C66.8594 46.5484 66.0824 46.8585 65.7195 47.0069V51.9897H63.7616V44.8791H65.7195V44.8777Z" fill="white"/>
<path d="M71.6195 48.4454C71.6195 47.3551 71.8214 46.5058 72.2224 45.8872C72.7184 45.1333 73.4296 44.6484 74.8504 44.6484C75.6552 44.6484 76.5932 44.8909 77.2649 45.0658V46.9246C76.6883 46.7629 75.7635 46.5073 75.1065 46.5073C74.53 46.5073 74.0603 46.6278 73.8466 47.073C73.6461 47.4903 73.6052 47.9076 73.6052 48.4469C73.6052 48.9862 73.6461 49.3888 73.8203 49.7797C74.0076 50.2102 74.4378 50.3719 75.108 50.3719C75.8586 50.3719 76.6503 50.1838 77.2663 50.0354V51.8942C76.6635 52.0147 75.6435 52.2175 74.8665 52.2175C73.3652 52.2175 72.7082 51.7737 72.2121 51.0184C71.836 50.4527 71.6224 49.5769 71.6224 48.4469L71.6195 48.4454Z" fill="white"/>
<path d="M78.298 48.4998C78.298 47.652 78.3916 46.641 78.835 45.9004C79.3442 45.0658 80.2837 44.6484 81.6504 44.6484C83.0171 44.6484 83.8497 44.9982 84.3458 45.6579C84.8828 46.3721 84.896 47.2743 84.896 47.7857C84.896 48.1765 84.8287 48.9039 84.7613 49.2404H80.2149C80.2149 49.4961 80.2559 49.7121 80.43 49.9678C80.7256 50.3851 81.248 50.5203 82.025 50.5203C82.9498 50.5203 83.8351 50.3851 84.5462 50.2778V51.9471C83.8761 52.0544 82.8561 52.216 81.8245 52.216C80.2295 52.216 79.4642 51.8251 78.9009 51.0449C78.4443 50.4115 78.298 49.6577 78.298 48.4998ZM80.2149 47.84H83.0039C83.0171 47.7592 83.0303 47.6387 83.0303 47.4771C83.0303 47.2479 83.0039 46.9657 82.8298 46.71C82.6015 46.3735 82.1859 46.2384 81.6504 46.2384C81.0607 46.2384 80.6978 46.4 80.4563 46.7909C80.2822 47.073 80.2149 47.4918 80.2149 47.8415V47.84Z" fill="white"/>
<path d="M7.40719 56.0322C8.93634 56.0322 10.0089 56.2879 10.7859 57.1769C11.5234 58.0116 11.8849 59.049 11.8849 61.068C11.8849 63.087 11.4152 64.3668 10.4772 65.2147C9.67237 65.9421 8.7066 66.1845 7.29891 66.1845H3.7592V56.0308H7.40719V56.0322ZM5.77123 57.9307V64.286H7.35305C8.332 64.286 8.9217 64.07 9.36508 63.4102C9.75432 62.8313 9.84797 62.0363 9.84797 61.0665C9.84797 60.0159 9.78066 59.1415 9.27143 58.5347C8.82952 58.0101 8.22518 57.9293 7.42036 57.9293H5.77123V57.9307Z" fill="white"/>
<path d="M13.3877 59.0753H15.3456V59.8834C15.6265 59.6821 15.8958 59.4926 16.2309 59.3309C16.5923 59.1561 17.1966 58.9944 17.8405 58.9004V60.8797C17.2508 60.9738 16.7679 61.0957 16.2982 61.2838C15.8694 61.4587 15.5475 61.6468 15.3456 61.7819V66.1858H13.3877V59.0753Z" fill="white"/>
<path d="M20.6968 56.0322V58.1056H18.739V56.0322H20.6968ZM18.739 66.186V59.0754H20.6968V66.186H18.739Z" fill="white"/>
<path d="M23.66 59.0757L25.3223 64.2466L26.9846 59.0757H29.0625L26.5954 66.1863H23.9541L21.5134 59.0757H23.6585H23.66Z" fill="white"/>
<path d="M31.8398 56.0322V58.1056H29.8819V56.0322H31.8398ZM29.8819 66.186V59.0754H31.8398V66.186H29.8819Z" fill="white"/>
<path d="M35.5405 59.0754V59.4663C35.9824 59.2914 37.1092 58.8462 37.7662 58.8462C38.4232 58.8462 38.9324 59.0078 39.3217 59.4119C39.7504 59.8557 39.9523 60.489 39.9523 61.9305V66.186H37.9944V62.0246C37.9944 61.5529 37.9944 61.1899 37.8071 60.9342C37.6593 60.7462 37.3916 60.7462 37.1501 60.7462C36.6804 60.7462 35.9034 61.0562 35.5405 61.2046V66.1875H33.5826V59.0769H35.5405V59.0754Z" fill="white"/>
<path d="M41.9775 60.032C42.4867 59.2238 43.2784 58.8477 44.7124 58.8477C45.826 58.8477 47.0054 59.2517 48.1058 59.6294V65.3117C48.1058 66.4564 47.9858 67.3586 47.3946 68.0184C46.8181 68.6649 45.785 69.0014 44.19 69.0014C43.2111 69.0014 42.4194 68.9074 41.7229 68.8133V67.0897C42.219 67.1573 43.2111 67.291 44.19 67.291C44.9012 67.291 45.4236 67.1558 45.7323 66.9001C46.0411 66.6444 46.1479 66.3079 46.1479 65.8627V65.5938C45.9606 65.6878 45.7323 65.7819 45.4499 65.8906C45.0475 66.039 44.5515 66.1875 43.9749 66.1875C43.0633 66.1875 42.3931 65.7701 42.017 65.1912C41.641 64.6122 41.4273 63.7776 41.4273 62.6461C41.4273 61.5147 41.5883 60.6404 41.9775 60.0335V60.032ZM43.6003 63.8966C43.7481 64.2875 44.0569 64.408 44.5251 64.408C44.8734 64.408 45.2085 64.3007 45.4909 64.1787C45.7455 64.0715 45.9606 63.9627 46.1479 63.8687V60.9063C45.6519 60.7447 45.2231 60.6374 44.7929 60.6374C44.2164 60.6374 43.8008 60.7991 43.6135 61.2164C43.4657 61.5529 43.4116 61.9981 43.4116 62.6432C43.4116 63.1413 43.4525 63.519 43.5989 63.8951L43.6003 63.8966Z" fill="white"/>
<path d="M52.7591 58.82C52.7591 57.7164 53.081 56.9758 53.8053 56.4233C54.4492 55.9252 55.3345 55.8032 56.4202 55.8032C57.5865 55.8032 59.142 56.1397 60.0404 56.3425V58.2821C59.1288 58.0808 57.3992 57.7032 56.5007 57.7032C55.8027 57.7032 55.4018 57.7429 55.1194 57.9589C54.8648 58.1602 54.7975 58.3762 54.7975 58.6862C54.7975 59.036 54.8648 59.2652 55.0799 59.4268C55.3213 59.6017 55.6023 59.6957 56.1525 59.8706L57.8952 60.4231C58.6459 60.6656 59.2093 60.8536 59.6249 61.2181C60.1619 61.6765 60.4692 62.4436 60.4692 63.3194C60.4692 64.2892 60.1473 65.0562 59.4507 65.6087C58.7396 66.1745 57.8543 66.4169 56.3661 66.4169C55.2394 66.4169 53.7922 66.148 52.8527 65.9731V64.007C53.9253 64.2231 55.4135 64.5184 56.5271 64.5184C57.3055 64.5184 57.7343 64.4376 58.0284 64.2363C58.3094 64.0482 58.4308 63.7778 58.4308 63.4281C58.4308 63.1048 58.3503 62.8624 58.1484 62.7007C57.9479 62.5391 57.4372 62.3642 56.8753 62.1894L55.1457 61.6369C54.4477 61.4076 53.9926 61.2195 53.6034 60.8963C53.0269 60.4114 52.7591 59.7119 52.7591 58.8229V58.82Z" fill="white"/>
<path d="M61.6632 62.6447C61.6632 61.5543 61.8652 60.705 62.2661 60.0864C62.7622 59.3326 63.4733 58.8477 64.8942 58.8477C65.699 58.8477 66.637 59.0901 67.3086 59.265V61.1238C66.7321 60.9622 65.8073 60.7065 65.1503 60.7065C64.5737 60.7065 64.104 60.827 63.8904 61.2722C63.6899 61.6895 63.6489 62.1068 63.6489 62.6461C63.6489 63.1854 63.6899 63.588 63.864 63.9789C64.0513 64.4094 64.4815 64.5711 65.1517 64.5711C65.9024 64.5711 66.694 64.383 67.3101 64.2346V66.0934C66.7072 66.2139 65.6873 66.4167 64.9103 66.4167C63.4089 66.4167 62.7519 65.9729 62.2559 65.2176C61.8798 64.6519 61.6662 63.7761 61.6662 62.6461L61.6632 62.6447Z" fill="white"/>
<path d="M70.5674 56.0322V59.3987C71.0503 59.2106 72.0292 58.8462 72.7257 58.8462C73.4223 58.8462 73.9198 59.0343 74.3076 59.4384C74.7495 59.9101 74.9514 60.489 74.9514 61.9291V66.1845H72.9935V62.0231C72.9935 61.5514 72.9935 61.1473 72.7931 60.9196C72.6321 60.7447 72.3907 60.7447 72.0951 60.7447C71.6927 60.7447 70.8747 61.0547 70.5659 61.1752V66.1845H68.608V56.0308H70.5659L70.5674 56.0322Z" fill="white"/>
<path d="M76.4147 62.6447C76.4147 61.6616 76.6152 60.7197 77.0044 60.1408C77.5678 59.3061 78.4121 58.8477 79.9003 58.8477C81.2948 58.8477 82.1933 59.3193 82.7435 60.0864C83.2132 60.7462 83.3873 61.6616 83.3873 62.6447C83.3873 63.6277 83.1868 64.5299 82.7698 65.1089C82.1933 65.9039 81.4148 66.4152 79.9003 66.4152C78.3858 66.4152 77.6073 65.9568 77.0439 65.1765C76.6547 64.6372 76.4132 63.7085 76.4132 62.6447H76.4147ZM78.3989 62.6447C78.3989 63.2236 78.4794 63.6674 78.6667 64.0186C78.9082 64.4623 79.3647 64.6108 79.9003 64.6108C80.4358 64.6108 80.8119 64.4491 81.0797 64.0715C81.3211 63.7218 81.4016 63.2765 81.4016 62.6035C81.4016 61.9981 81.3211 61.5 81.0402 61.1223C80.7987 60.7991 80.4373 60.6506 79.9003 60.6506C79.3632 60.6506 78.9213 60.7858 78.6799 61.2164C78.4794 61.5793 78.3989 62.0113 78.3989 62.6432V62.6447Z" fill="white"/>
<path d="M84.5945 62.6447C84.5945 61.6616 84.795 60.7197 85.1842 60.1408C85.7476 59.3061 86.5919 58.8477 88.0801 58.8477C89.4746 58.8477 90.3731 59.3193 90.9233 60.0864C91.393 60.7462 91.5671 61.6616 91.5671 62.6447C91.5671 63.6277 91.3666 64.5299 90.9496 65.1089C90.3731 65.9039 89.5946 66.4152 88.0801 66.4152C86.5656 66.4152 85.7871 65.9568 85.2237 65.1765C84.8345 64.6372 84.593 63.7085 84.593 62.6447H84.5945ZM86.5787 62.6447C86.5787 63.2236 86.6592 63.6674 86.8465 64.0186C87.088 64.4623 87.5445 64.6108 88.0801 64.6108C88.6156 64.6108 88.9917 64.4491 89.2595 64.0715C89.5009 63.7218 89.5814 63.2765 89.5814 62.6035C89.5814 61.9981 89.5009 61.5 89.22 61.1223C88.9785 60.7991 88.6171 60.6506 88.0801 60.6506C87.5431 60.6506 87.1011 60.7858 86.8597 61.2164C86.6592 61.5793 86.5787 62.0113 86.5787 62.6432V62.6447Z" fill="white"/>
<path d="M93.0436 66.186V56.0322H95.0015V66.186H93.0436Z" fill="white"/>
<path d="M17.1279 0C7.66913 0 0 7.70128 0 17.1997C0 26.6981 7.66913 34.3993 17.1279 34.3993C26.5866 34.3993 34.2557 26.6981 34.2557 17.1997C34.2557 7.70128 26.5881 0 17.1279 0ZM33.1436 17.1997C33.1436 26.0809 25.9735 33.2811 17.1293 33.2811C8.28517 33.2811 1.11357 26.0824 1.11357 17.1997C1.11357 8.31697 8.28371 1.11824 17.1279 1.11824C25.972 1.11824 33.1422 8.31844 33.1422 17.1997H33.1436Z" fill="white"/>
<path d="M25.4291 9.90267C25.6618 10.1539 25.9969 10.558 26.1857 10.8034L29.6537 8.59194C29.481 8.36417 29.2044 8.01886 28.9981 7.77493L26.8017 9.23408L26.6524 9.36339L26.7651 9.19881L27.7353 7.25475L27.0505 6.56706L25.1145 7.54129L24.9521 7.65297L25.0823 7.50162L26.5354 5.29747C26.2793 5.07853 26.0349 4.87869 25.7203 4.63623L23.5181 8.11731C23.7976 8.33332 24.1648 8.64924 24.399 8.86525L26.471 7.78522L26.6042 7.68677L26.5061 7.82048L25.4321 9.90414L25.4291 9.90267Z" fill="white"/>
<path d="M17.5595 5.49277L18.5078 3.36062L18.5678 3.17254L18.5502 3.36944L18.6497 6.21719C18.9819 6.24952 19.3257 6.29507 19.6638 6.35091L19.5101 2.13218C19.036 2.07928 18.5648 2.04254 18.0936 2.02197L17.1601 4.34955L17.1279 4.52147L17.0957 4.34955L16.1621 2.02197C15.6909 2.04254 15.2197 2.07928 14.7456 2.13218L14.592 6.35091C14.9315 6.29507 15.2739 6.24805 15.606 6.21719L15.7055 3.36944L15.688 3.17254L15.748 3.36062L16.6962 5.49277H17.5595Z" fill="white"/>
<path d="M9.89479 8.85475C10.4421 8.2758 10.7537 7.60574 10.205 6.96654C9.9065 6.61975 9.40605 6.54334 8.99048 6.71526L8.9495 6.73143L8.96267 6.69469C9.02413 6.53012 9.06364 6.00406 8.61734 5.64111C8.3993 5.46478 8.12713 5.39866 7.85057 5.42657C7.33695 5.47947 6.9404 5.83214 5.86195 7.03854C5.5371 7.40296 5.06299 7.9775 4.77911 8.34927L7.73936 11.1691C8.72269 10.0773 9.12217 9.67176 9.89479 8.85328V8.85475ZM6.03316 8.16559C6.62872 7.43382 7.26232 6.76963 7.55059 6.5066C7.64132 6.42285 7.73936 6.34056 7.85935 6.30823C8.05397 6.25386 8.25444 6.39346 8.2998 6.5933C8.34516 6.79461 8.21932 6.98564 8.08031 7.14287C7.76423 7.49994 6.60969 8.71369 6.60969 8.71369L6.03462 8.16559H6.03316ZM7.19062 9.26913C7.19062 9.26913 8.31736 8.07449 8.68318 7.69097C8.82951 7.53961 8.92316 7.44704 9.02413 7.39708C9.15436 7.33242 9.2963 7.32067 9.42215 7.4059C9.54653 7.48965 9.60506 7.63513 9.57287 7.77766C9.53482 7.94812 9.39727 8.11122 9.28167 8.23612C9.12656 8.40364 7.79057 9.8378 7.78911 9.84074L7.18916 9.26913H7.19062Z" fill="white"/>
<path d="M27.286 17.2013H17.1293V7.00049C22.7425 7.00049 27.286 11.5631 27.286 17.1998V17.2013Z" fill="white"/>
<path d="M17.1293 17.2012V27.4005C11.5161 27.4005 6.9726 22.8379 6.9726 17.2012H17.1293Z" fill="white"/>
<path d="M17.1293 7.00049V17.1998H6.97113C6.97113 11.5631 11.5147 7.00049 17.1279 7.00049H17.1293Z" fill="#006FB9"/>
<path d="M27.286 17.2012C27.286 22.8379 22.7425 27.4005 17.1293 27.4005V17.2012H27.286Z" fill="#006FB9"/>
</g>
<defs>
<clipPath id="clip0_386_732">
<rect width="95" height="69" fill="white"/>
</clipPath>
</defs>
</svg>
